/* XPM */
static char *_7a5d43bcee547908af1a3c1455a8ad48jPeHTF0NEwK9o3w[] = {
/* columns rows colors chars-per-pixel */
"40 40 39 1 ",
"  c black",
". c #42232B",
"X c #42242E",
"o c #45262E",
"O c #422730",
"+ c #472830",
"@ c #623532",
"# c #773735",
"$ c #733D3B",
"% c #703D3C",
"& c #6A6C7B",
"* c #6C6B7D",
"= c #6A6D7E",
"- c #963F35",
"; c #974036",
": c #984034",
"> c #BD4B30",
", c #B27B38",
"< c #FA721E",
"1 c #FA7322",
"2 c #F87422",
"3 c #FB7224",
"4 c #8A4F53",
"5 c #AF6B6C",
"6 c #B16D6E",
"7 c #C6833C",
"8 c #F8AF3C",
"9 c #F6B13C",
"0 c #F8B03A",
"q c #F9B03D",
"w c #FEE763",
"e c #FCE863",
"r c #59C9E8",
"t c #9B9DAA",
"y c #9C9EAB",
"u c #9C9EAD",
"i c #F5F8FD",
"p c #F8F8F8",
"a c #FFF9FA",
/* pixels */
"rrrrrrrrrrrrrrrrrrrrrrrrrrrrrrrrrrrrrrrr",
"rrrrrrrrrrrrrrrrrrrrrrrrrrrrrrrrrrrrrrrr",
"rrrrrrrrrrrrrrrrrrrrrrrrrrrrrrrrrrrrrrrr",
"rrrrrrrrrrrrrrrrrrrrrrrrrrrrrrrrrrrrrrrr",
"rrrrrrrrrrrrrrrrrrrrrrrrrrrrrrrrrrrrrrrr",
"rrrrrrrrrrrrrrrrrrrrrrrrrrrrrrrrrrrrrrrr",
"rrrrrrrrrrrrrrrrrrrrrrrrrrrrrrrrrrrrrrrr",
"rrrrrrrrrrrrrrrrrrrrrrrrrrrrrrrrrrrrrrrr",
"rrrrrrrrrrrrrrrrrrrrrrrrrrrrrrrrrrrrrrrr",
"rrrrrrrrrrrrrrrrrrrrrrrrrrrrrrrrrrrrrrrr",
"rrrrrrrrrrrr111rrrrrrrrrr111rrrrrrrrrrrr",
"rrrrrrrrrr.+8q8o6;;;;;;;oq18#.rrrrrrrrrr",
"rrrrrrrrrroow88o----5555oe884orrrrrrrrrr",
"rrrrrrrrrroow88o------55oew84orrrrrrrrrr",
"rrrrrrrri8o+wwwo55555---owww#o8rrrrrrrrr",
"rrrrrrrri8oowwwoooooooooowwwoo8rrrrrrrrr",
"rrrrrrrri8o+wwwo55------owww#o8rrrrrrrrr",
"rrrrrrrri8oo88wo--p$$p--o88w#o8rrrrrrrrr",
"rrrrrrrri8oo888o-tpttpt$o888#o8rrrrrrrrr",
"rrrrrrrri8oo898o$t tt u$o098@o8rrrrrrrrr",
"rrrrrrrri8oo111oottttt*oo111oo8rrrrrrrrr",
"rrrrrrrri88888888ttytt&88888888rrrrrrrrr",
"rrrrrrrra32111111ttyt&=11111<23rrrrrrrrr",
"rrrrrrrrrr8X---o-tttt&&-o---,8rrrrrrrrrr",
"rrrrrrrrrr8X--$o$-tt&&-$o%--,8rrrrrrrrrr",
"rrrrrrrrrr8O$$$o$$:::$$$O$$:,8rrrrrrrrrr",
"rrrrrrrrrr8X$$$$$$$$$$$$o$$$78rrrrrrrrrr",
"rrrrrrrrrr8X$$$o$$$$$$$$o$$$,8rrrrrrrrrr",
"rrrrrrrrrr88888888888888888888rrrrrrrrrr",
"rrrrrrrrrr>>>>>>>>>>>>>>>>>>>>rrrrrrrrrr",
"rrrrrrrrrrrrrrrrrrrrrrrrrrrrrrrrrrrrrrrr",
"rrrrrrrrrrrrrrrrrrrrrrrrrrrrrrrrrrrrrrrr",
"rrrrrrrrrrrrrrrrrrrrrrrrrrrrrrrrrrrrrrrr",
"rrrrrrrrrrrrrrrrrrrrrrrrrrrrrrrrrrrrrrrr",
"rrrrrrrrrrrrrrrrrrrrrrrrrrrrrrrrrrrrrrrr",
"rrrrrrrrrrrrrrrrrrrrrrrrrrrrrrrrrrrrrrrr",
"rrrrrrrrrrrrrrrrrrrrrrrrrrrrrrrrrrrrrrrr",
"rrrrrrrrrrrrrrrrrrrrrrrrrrrrrrrrrrrrrrrr",
"rrrrrrrrrrrrrrrrrrrrrrrrrrrrrrrrrrrrrrrr",
"rrrrrrrrrrrrrrrrrrrrrrrrrrrrrrrrrrrrrrrr"
};
