/* XPM */
static char *e745dd1f4f7d413ed5c4c93cc4ad0220GqUQiC8m5ODwyjkO[] = {
/* columns rows colors chars-per-pixel */
"40 40 6 1 ",
"  c black",
". c #008000",
"X c green",
"o c #59C9E8",
"O c #FFCD94",
"+ c white",
/* pixels */
"oooooooooooooooooooooooooooooooooooooooo",
"oooooooooooooooooooooooooooooooooooooooo",
"oooooooooooooooooooooooooooooooooooooooo",
"oooooooooooooooooooooooooooooooooooooooo",
"oooooooooooooooooooooooooooooooooooooooo",
"oooooooooooooooooooooooooooooooooooooooo",
"oooooooooooooooooooooooooooooooooooooooo",
"oooooooooooooooooooooooooooooooooooooooo",
"oooooooooooooooooooooooooooooooooooooooo",
"oooooooooooooooooooooooooooooooooooooooo",
"oooooooooooooooooooooooooooooooooooooooo",
"oooooooooooooooooooooooooooooooooooooooo",
"oooooooooooooooooooooooooooooooooooooooo",
"oooooooooooooooooooooooooooooooooooooooo",
"ooooooooooooooooo .... ooooooooooooooooo",
"oooooooooooooooo ...... oooooooooooooooo",
"ooooooooooooooo .. XX .. ooooooooooooooo",
"oooooooooooooo .. XXXX .. oooooooooooooo",
"oooooooooooooo..XXXXXXXX..oooooooooooooo",
"ooooooooooooo . X XXXX+X . ooooooooooooo",
"ooooooooooooo . X XXXX X . ooooooooooooo",
"ooooooooooooooX XXXX XXX Xoooooooooooooo",
"ooooooooooooo XXX      XXX ooooooooooooo",
"oooooooooooo XXXX OOOO XXXX oooooooooooo",
"oooooooooooo XXXoo    ooXXX oooooooooooo",
"ooooooooooooo   oooooooo   ooooooooooooo",
"oooooooooooooooooooooooooooooooooooooooo",
"oooooooooooooooooooooooooooooooooooooooo",
"oooooooooooooooooooooooooooooooooooooooo",
"oooooooooooooooooooooooooooooooooooooooo",
"oooooooooooooooooooooooooooooooooooooooo",
"oooooooooooooooooooooooooooooooooooooooo",
"oooooooooooooooooooooooooooooooooooooooo",
"oooooooooooooooooooooooooooooooooooooooo",
"oooooooooooooooooooooooooooooooooooooooo",
"oooooooooooooooooooooooooooooooooooooooo",
"oooooooooooooooooooooooooooooooooooooooo",
"oooooooooooooooooooooooooooooooooooooooo",
"oooooooooooooooooooooooooooooooooooooooo",
"oooooooooooooooooooooooooooooooooooooooo"
};
